<svg version="1.1" id="Layer_1" xmlns="http://www.w3.org/2000/svg" xmlns:xlink="http://www.w3.org/1999/xlink" x="0px" y="0px"
	 viewBox="150 150 750 250" enable-background="new 0 0 1024 672" xml:space="preserve">
<defs>
    <linearGradient id="brandGrad" x1="0" y1="0" x2="1024" y2="672" gradientUnits="userSpaceOnUse">
        <stop offset="0%" stop-color="#0066FF" /> <!-- Deep Blue -->
        <stop offset="50%" stop-color="#4DB8FF" /> <!-- Light Blue transition -->
        <stop offset="100%" stop-color="#7BCC4C" /> <!-- Lime Green -->
    </linearGradient>
</defs>
<path fill="url(#brandGrad)" opacity="1.000000" stroke="none" 
	d="
M376.818207,361.155304 
	C382.321014,368.073059 387.900391,374.459320 392.327240,381.762939 
	C397.517120,390.325287 399.457031,399.190582 394.382874,408.243164 
	C389.444458,417.053528 381.145447,420.404846 371.294159,420.409973 
	C334.978180,420.428894 298.662170,420.503418 262.346191,420.487854 
	C243.029388,420.479553 232.727020,402.957916 242.890045,386.452393 
	C251.174667,372.997498 260.699921,360.308777 269.608826,347.235199 
	C276.174103,337.600861 282.558319,327.842438 289.187256,318.252716 
	C290.995148,315.637360 291.699707,313.004059 291.686127,309.873322 
	C291.599304,289.882721 291.764862,269.890167 291.544647,249.901581 
	C291.493103,245.219177 292.711731,243.396057 297.663483,243.576721 
	C306.645966,243.904480 315.653534,243.711685 324.645813,243.515381 
	C327.770599,243.447159 329.104004,244.262329 329.201019,247.649323 
	C329.502716,258.184326 329.626709,258.109955 319.114441,258.221222 
	C306.497498,258.354736 308.280182,256.601715 308.174469,269.028107 
	C308.046936,284.020172 308.044098,299.014771 308.176300,314.006622 
	C308.211670,318.014160 307.250397,321.421448 305.004181,324.757294 
	C294.681152,340.087952 284.478119,355.499969 274.311310,370.935028 
	C271.013275,375.942078 267.948700,381.101624 266.094543,386.872253 
	C263.484344,394.995911 266.583466,401.094330 274.646118,403.550293 
	C285.590912,406.884125 296.965424,406.298431 308.231232,407.037292 
	C299.663696,406.167969 291.447083,404.016174 283.500000,400.800201 
	C273.735992,396.848938 271.499481,391.043182 276.106720,381.505737 
	C276.323975,381.055939 276.559082,380.614746 276.785553,380.169373 
	C282.160889,369.597473 282.127930,369.860352 293.830444,371.325867 
	C319.200439,374.503021 343.488190,369.981049 367.006653,360.415588 
	C370.176575,359.126282 373.629517,356.139099 376.818207,361.155304 
M319.484924,386.027740 
	C317.453644,388.309448 317.465576,390.505829 320.075531,392.231171 
	C321.569336,393.218658 323.247742,392.971375 324.601440,391.680847 
	C325.787140,390.550446 326.190674,389.103455 325.488647,387.636566 
	C324.386444,385.333679 322.463257,384.818054 319.484924,386.027740 
M352.470917,385.398743 
	C353.362457,387.885712 354.954681,388.423492 356.951599,386.720703 
	C358.090088,385.749878 358.134613,384.230682 356.960449,383.246155 
	C354.842316,381.470093 353.380707,382.396576 352.470917,385.398743 
z"/>
<path fill="url(#brandGrad)" opacity="1.000000" stroke="none" 
	d="
M228.372559,387.447174 
	C202.852249,369.449829 188.465317,345.043182 184.737122,314.498077 
	C177.743561,257.199829 220.960159,208.548569 275.006866,200.681229 
	C317.639954,194.475342 362.608704,216.406677 384.291443,254.123276 
	C394.459351,271.810150 400.140167,290.669037 399.491394,311.282257 
	C399.373505,315.028137 398.681610,316.995361 394.538757,316.415100 
	C392.903137,316.185974 391.210114,316.314026 389.545319,316.357910 
	C386.907104,316.427429 386.189056,315.154877 386.276550,312.616516 
	C387.218994,285.272247 377.061279,262.263062 358.452393,242.734573 
	C339.751404,223.109421 316.409729,213.153763 289.608063,213.582031 
	C257.797028,214.090363 232.041824,227.971329 213.860886,254.262024 
	C187.707794,292.080872 195.587769,342.926849 231.431564,371.847778 
	C233.400497,373.436432 237.407593,374.772217 236.454376,377.362213 
	C235.013535,381.277069 233.467667,385.855621 228.372559,387.447174 
z"/>
<path fill="url(#brandGrad)" opacity="1.000000" stroke="none" 
	d="
M488.160278,288.150269 
	C488.953949,285.823730 490.185394,284.930511 492.333771,284.702484 
	C505.386627,283.317200 506.432068,283.866852 510.433563,296.398590 
	C514.778748,310.006622 518.955627,323.668365 523.686218,338.848175 
	C526.341797,330.106720 528.548462,322.749390 530.813904,315.410217 
	C533.465698,306.819580 536.263489,298.272705 538.804199,289.649750 
	C539.863159,286.055634 541.797424,284.385712 545.639038,284.685730 
	C548.786255,284.931488 551.969177,284.788696 555.134216,284.721802 
	C558.831055,284.643677 559.860718,286.172333 558.670776,289.699402 
	C553.615479,304.683960 548.643555,319.696838 543.691650,334.716034 
	C541.137695,342.462311 538.552246,350.203033 536.248779,358.025116 
	C535.001892,362.259308 533.015564,364.877777 528.163330,364.015320 
	C527.192322,363.842743 526.167725,363.968964 525.167847,363.962463 
	C511.107483,363.871002 514.939575,365.256897 510.766541,352.741455 
	C506.413422,339.685852 502.356262,326.531525 497.044312,313.355865 
	C494.074005,322.579285 491.096191,331.800323 488.136017,341.026978 
	C486.051727,347.523682 483.967163,354.020508 481.934021,360.533325 
	C481.251648,362.719269 479.891022,363.889221 477.589233,363.935699 
	C477.089478,363.945801 476.590118,363.971680 476.090515,363.989197 
	C461.350586,364.506104 461.345184,364.507874 456.546661,350.108032 
	C449.810883,329.894562 443.088043,309.676819 436.344116,289.466064 
	C435.924683,288.208984 435.236267,287.013000 436.289734,284.807465 
	C441.625549,284.807465 447.384796,284.712799 453.138489,284.850464 
	C455.722473,284.912262 455.951538,287.218414 456.540161,289.141632 
	C460.924622,303.466522 465.346863,317.779938 469.775635,332.091217 
	C470.252686,333.632721 470.847504,335.137787 472.443359,336.756836 
	C477.626099,320.679565 482.808807,304.602325 488.160278,288.150269 
z"/>
<path fill="url(#brandGrad)" opacity="1.000000" stroke="none" 
	d="
M793.683838,345.991943 
	C793.686401,327.336365 793.827454,309.177429 793.598938,291.023102 
	C793.538574,286.229401 795.070374,284.557159 799.872314,284.662354 
	C811.193970,284.910309 822.524963,284.741943 833.852173,284.717010 
	C839.788269,284.703949 845.422363,285.987457 850.725586,288.631042 
	C863.722656,295.109894 865.342896,311.360352 853.905884,320.280396 
	C853.270874,320.775604 852.660583,321.302460 852.046631,321.808167 
	C852.703918,324.019836 854.672363,324.486816 856.100342,325.491516 
	C868.711670,334.364410 867.419250,352.606354 853.608948,359.596771 
	C847.873291,362.500031 841.624939,363.878143 835.298157,364.020905 
	C823.144775,364.295166 810.978882,363.961121 798.819885,364.072144 
	C794.734802,364.109406 793.136536,362.720520 793.572327,358.475159 
	C793.978577,354.518097 793.675110,350.488129 793.683838,345.991943 
M829.278015,348.652039 
	C832.237610,348.314850 835.259460,348.244934 838.141052,347.573212 
	C841.800781,346.720093 844.357910,344.377411 844.701904,340.414276 
	C845.050232,336.402771 843.015137,333.770935 839.287292,332.481903 
	C837.730469,331.943573 836.092773,331.364929 834.477295,331.319397 
	C828.675476,331.155975 822.867249,331.240265 817.062012,331.173248 
	C814.346008,331.141907 813.133911,332.408905 813.174805,335.101685 
	C813.385742,348.978668 810.931824,348.401093 825.358337,348.661530 
	C826.353455,348.679474 827.349243,348.660583 829.278015,348.652039 
M833.831543,315.833954 
	C838.406982,315.003418 841.584656,312.673920 841.572266,307.675323 
	C841.562073,303.585297 837.959473,300.784088 832.419922,300.318756 
	C829.619385,300.083527 826.789551,300.057983 823.977417,300.125092 
	C812.393555,300.401581 813.200439,297.627563 813.175232,311.554901 
	C813.169617,314.683746 814.353638,316.126648 817.557556,316.048645 
	C822.689453,315.923706 827.825378,315.963074 833.831543,315.833954 
z"/>
<path fill="url(#brandGrad)" opacity="1.000000" stroke="none" 
	d="
M762.581543,355.324219 
	C759.518921,347.259735 759.518982,347.240234 751.425049,347.208405 
	C744.104065,347.179626 736.780090,347.321136 729.463257,347.145416 
	C725.987000,347.061951 723.664124,348.139557 722.741028,351.622528 
	C722.656616,351.940765 722.490234,352.238068 722.354370,352.541687 
	C716.795166,364.965607 715.548340,365.602142 701.749329,364.091858 
	C698.073303,363.689514 697.723938,362.118011 699.066467,359.107422 
	C709.561707,335.571289 720.045410,312.029663 730.395020,288.429352 
	C731.705872,285.440094 733.723755,284.161652 736.600098,284.789185 
	C742.247131,286.021149 750.120972,280.817810 753.428223,287.883270 
	C764.630798,311.816101 774.920776,336.176208 785.536621,360.383087 
	C785.789307,360.959320 785.773071,361.653473 785.975647,362.838837 
	C779.575928,364.768555 773.119934,364.682129 766.940552,363.252441 
	C764.065735,362.587372 764.345825,358.153442 762.581543,355.324219 
M735.506409,319.964081 
	C734.465271,323.716888 731.773315,326.975006 731.892212,331.165222 
	C738.824036,331.165222 745.480896,331.165222 752.761841,331.165222 
	C749.143433,322.603119 746.729919,314.359772 741.652405,306.252167 
	C739.467407,311.156830 737.657837,315.218719 735.506409,319.964081 
z"/>
<path fill="url(#brandGrad)" opacity="1.000000" stroke="none" 
	d="
M576.071411,284.716553 
	C591.550964,284.718048 606.542847,284.830505 621.531494,284.657257 
	C625.647583,284.609680 627.115295,286.013245 627.093506,290.139374 
	C627.040039,300.249573 627.188477,300.250885 617.101562,300.260468 
	C608.773438,300.268341 600.442322,300.406555 592.118469,300.221283 
	C588.447571,300.139618 587.077576,301.433350 587.137024,305.126068 
	C587.335938,317.482330 585.948792,315.896423 597.629028,315.998779 
	C604.124512,316.055695 610.625000,316.158722 617.115173,315.967346 
	C621.279236,315.844543 623.126831,317.111694 622.979492,321.670471 
	C622.666382,331.360443 622.873291,331.364685 613.094666,331.358551 
	C606.265564,331.354279 599.433350,331.481995 592.608704,331.308380 
	C588.892090,331.213837 587.063171,332.346039 587.149353,336.390900 
	C587.430298,349.584259 585.506531,347.858215 598.441895,347.894470 
	C606.769897,347.917816 615.099304,347.968933 623.425415,347.837311 
	C627.054443,347.779968 628.453003,349.166077 628.339294,352.867279 
	C627.976624,364.667236 629.896606,363.969299 617.366272,364.011688 
	C603.042114,364.060181 588.717529,364.055023 574.393433,363.995636 
	C567.976562,363.969025 567.685425,363.613159 567.681580,357.148834 
	C567.668823,335.662201 567.676331,314.175568 567.678284,292.688934 
	C567.678955,284.768341 567.681763,284.768341 576.071411,284.716553 
z"/>
<path fill="url(#brandGrad)" opacity="1.000000" stroke="none" 
	d="
M640.006592,354.895996 
	C640.182190,332.781067 640.452759,311.150238 640.444275,289.519531 
	C640.442810,285.673584 641.762451,284.482758 645.353577,284.721222 
	C648.336060,284.919220 651.354370,284.920227 654.335693,284.709869 
	C658.336182,284.427612 659.451599,286.245697 659.455261,290.029327 
	C659.472290,307.666656 659.841675,325.304230 659.769409,342.940460 
	C659.753723,346.780457 660.899292,347.829010 664.565308,347.737732 
	C673.048401,347.526520 681.542847,347.792542 690.028015,347.628174 
	C693.713318,347.556793 695.510559,348.496185 695.381348,352.643799 
	C695.004333,364.736572 697.287354,364.023621 684.299377,364.057404 
	C672.482239,364.088165 660.664856,364.036072 648.847595,364.019684 
	C639.998352,364.007416 639.998352,364.006836 640.006592,354.895996 
z"/>
<path fill="url(#brandGrad)" opacity="1.000000" stroke="none" 
	d="
M261.112671,313.194641 
	C255.143326,317.230743 249.243362,318.481201 243.155563,314.503235 
	C238.145340,311.229401 235.867859,306.529602 236.485535,300.483063 
	C237.096649,294.500671 240.964050,289.523499 246.310867,287.972656 
	C252.574127,286.156006 258.615173,287.913422 262.500610,292.682404 
	C266.462463,297.545197 267.166473,304.293030 264.138062,309.426666 
	C263.388428,310.697357 262.318451,311.779144 261.112671,313.194641 
z"/>
<path fill="url(#brandGrad)" opacity="1.000000" stroke="none" 
	d="
M243.560638,242.597763 
	C245.598206,236.804291 249.496170,233.801559 254.190826,234.079865 
	C258.965179,234.362915 263.138580,237.941650 264.097107,242.574615 
	C264.930969,246.605240 262.457733,251.342957 258.477356,253.339752 
	C250.829254,257.176483 243.609833,252.180588 243.560638,242.597763 
z"/>
<path fill="url(#brandGrad)" opacity="1.000000" stroke="none" 
	d="
M337.328796,302.611328 
	C330.868256,304.811035 325.888275,302.999969 323.637268,297.939056 
	C321.344208,292.783569 323.240356,287.352631 328.209778,284.842407 
	C333.173767,282.334961 338.840546,283.848999 341.731140,288.454956 
	C344.804443,293.352081 343.375732,298.263123 337.328796,302.611328 
z"/>
<path fill="url(#brandGrad)" opacity="1.000000" stroke="none" 
	d="
M319.423065,340.388000 
	C323.239075,337.447174 326.914734,336.847809 330.765289,339.450592 
	C333.620941,341.380890 335.218536,344.115631 334.686859,347.513641 
	C334.140320,351.006287 332.063324,353.664490 328.554749,354.766785 
	C324.919434,355.908875 321.614044,355.391296 319.157745,352.140778 
	C316.278015,348.329956 316.220703,344.499969 319.423065,340.388000 
z"/>
<path fill="url(#brandGrad)" opacity="1.000000" stroke="none" 
	d="
M277.972900,277.102356 
	C271.350433,279.947205 265.901062,277.859314 264.588165,272.307251 
	C263.544434,267.893188 265.221252,263.888458 269.045532,262.392639 
	C273.111053,260.802429 276.891815,261.379486 279.782623,264.918549 
	C282.604126,268.372711 282.014862,272.608246 277.972900,277.102356 
z"/>
<path fill="url(#brandGrad)" opacity="1.000000" stroke="none" 
	d="
M349.262085,312.893433 
	C355.344849,313.325562 358.460663,316.508209 357.761963,321.100739 
	C357.056061,325.740753 353.456207,328.350098 348.879395,327.539246 
	C344.430939,326.751099 341.831421,322.720245 342.969482,318.336761 
	C343.763184,315.279785 345.918732,313.682373 349.262085,312.893433 
z"/>
<path fill="url(#brandGrad)" opacity="1.000000" stroke="none" 
	d="
M299.676208,364.478577 
	C296.012085,362.487549 295.810333,359.581421 297.359222,356.726379 
	C298.620911,354.400787 301.184692,354.245697 303.504028,355.158417 
	C305.866577,356.088196 307.381805,358.021454 306.776154,360.593658 
	C305.971252,364.012024 303.496735,365.318726 299.676208,364.478577 
z"/>
</svg>
